<?xml version="1.0" encoding="utf-8"?>
<svg viewBox="408.35 72.199 39.89 35.2" xmlns="http://www.w3.org/2000/svg">
  <path style="fill: rgb(255, 165, 0); stroke: rgb(205, 146, 37);" d="M 417.382 72.412 C 414.794 72.412 413.867 74.725 412.335 76.257 C 411.369 77.223 411.006 78.788 410.012 79.781 C 409.674 80.119 409.859 81.055 409.532 81.383 C 409.416 81.499 409.608 81.952 409.532 82.104 C 409.152 82.864 409.291 84.086 409.291 85.068 C 409.291 85.259 409.413 86.147 409.291 86.269 C 408.957 86.604 409.316 87.766 408.971 88.112 C 408.72 88.363 408.811 89.418 408.811 89.874 C 408.811 91.348 408.971 92.684 408.971 94.28 C 409.809 95.537 409.293 97.004 410.253 97.964 C 410.616 98.328 410.801 98.913 411.214 99.326 C 412.935 101.047 415.165 102.557 416.821 104.212 C 417.356 104.747 418.382 104.892 418.904 105.414 C 419.117 105.627 419.731 105.44 419.945 105.654 C 420.6 106.309 422.176 107.016 423.389 107.016 C 425.755 106.227 429.448 106.856 432.04 106.856 C 432.538 106.856 434.847 107.173 435.164 106.856 C 435.792 106.228 437.34 106.522 437.968 105.894 C 438.668 105.195 438.99 104.151 439.73 103.411 C 439.77 103.371 439.77 102.49 439.73 102.45 C 439.137 101.857 438.493 101.052 437.808 100.367 C 436.084 98.643 432.745 92.133 435.805 89.073 C 436.625 88.253 437.571 87.589 438.769 86.99 C 438.89 86.93 439.686 86.465 439.971 86.75 C 440.271 87.05 440.966 87.185 441.252 87.471 C 441.68 87.898 442.039 88.498 442.454 88.913 C 443.004 89.463 443.063 90.323 443.575 90.835 C 443.922 91.182 444.51 91.289 444.857 91.636 C 444.927 91.706 445.938 92.237 446.219 91.957 C 447.929 90.246 447.981 88.396 447.981 84.908 C 447.981 84.34 448.23 82.514 447.901 82.184 C 447.74 82.024 448.061 81.383 447.901 81.223 C 447.42 80.742 447.981 79.22 447.5 78.74 C 447.115 78.355 446.365 77.43 446.138 76.977 C 445.672 76.045 443.724 76.165 443.095 75.536 C 442.76 75.202 441.773 75.495 441.412 75.135 C 440.616 74.339 438.924 74.492 437.808 73.934 C 437.557 73.808 436.728 73.975 436.526 73.773 C 436.031 73.278 434.472 73.722 433.963 73.213 C 433.856 73.106 433.429 73.319 433.322 73.213 C 433.079 72.97 432.144 72.812 431.72 72.812 C 431.554 72.812 430.784 72.918 430.679 72.812 C 430.279 72.412 428.898 72.732 428.276 72.732 C 427.328 72.732 425.138 73.467 424.511 74.094 C 424.255 74.349 423.498 74.225 423.229 74.494 C 422.941 74.783 421.674 74.655 421.227 74.655 C 419.502 74.655 417.382 73.919 417.382 72.412 Z"/>
</svg>